<svg width="9" height="11" viewBox="0 0 9 11" fill="none" xmlns="http://www.w3.org/2000/svg">
<path d="M1.82474 0.394531C1.1588 0.394531 0.612793 0.940539 0.612793 1.60648V10.0901C0.789536 10.5383 1.14618 10.8981 1.65431 10.8981H8.69245V10.0901H1.82474C1.5975 10.0901 1.42076 9.91338 1.42076 9.68614C1.42076 9.4589 1.5975 9.28216 1.82474 9.28216H8.69245V8.47419H1.82474C1.5975 8.47419 1.42076 8.29745 1.42076 8.07021C1.42076 7.84297 1.5975 7.66623 1.82474 7.66623H8.69245V0.394531H1.82474ZM1.82474 1.2025H7.88449V6.85826H1.82474C1.68272 6.85826 1.547 6.88982 1.42076 6.93401V1.60648C1.42076 1.37924 1.5975 1.2025 1.82474 1.2025ZM2.22873 2.81843V3.6264H7.07652V2.81843H2.22873Z" fill="#C4C4C4"/>
</svg>
