<svg width="11" height="9" viewBox="0 0 11 9" fill="none" xmlns="http://www.w3.org/2000/svg">
<path d="M1.27755 0.414062C0.695226 0.414062 0.217773 0.891515 0.217773 1.47384V7.83251C0.217773 8.41484 0.695226 8.89229 1.27755 8.89229H9.04926C9.63159 8.89229 10.109 8.41484 10.109 7.83251V2.88688C10.109 2.30455 9.63159 1.8271 9.04926 1.8271H4.31338L3.85248 0.971551C3.66757 0.62657 3.30879 0.414062 2.91966 0.414062H1.27755ZM1.27755 1.12058H2.91966C3.04937 1.12058 3.16804 1.19234 3.23152 1.30549L3.51302 1.8271H0.924293V1.47384C0.924293 1.27513 1.07884 1.12058 1.27755 1.12058ZM0.924293 2.53362H9.04926C9.24797 2.53362 9.40252 2.68817 9.40252 2.88688V7.83251C9.40252 8.03122 9.24797 8.18577 9.04926 8.18577H1.27755C1.07884 8.18577 0.924293 8.03122 0.924293 7.83251V2.53362Z" fill="#C4C4C4"/>
</svg>
