<svg width="11" height="11" viewBox="0 0 11 11" fill="none" xmlns="http://www.w3.org/2000/svg">
<path d="M1.85447 0.806641C1.24302 0.806641 0.741699 1.30797 0.741699 1.91941V9.33786C0.741699 9.9493 1.24302 10.4506 1.85447 10.4506H9.27292C9.88436 10.4506 10.3857 9.9493 10.3857 9.33786V1.91941C10.3857 1.30797 9.88436 0.806641 9.27292 0.806641H1.85447ZM1.85447 1.54849H5.19277V9.70878H1.85447C1.64582 9.70878 1.48354 9.5465 1.48354 9.33786V1.91941C1.48354 1.71076 1.64582 1.54849 1.85447 1.54849ZM5.93461 1.54849H9.27292C9.48156 1.54849 9.64384 1.71076 9.64384 1.91941V9.33786C9.64384 9.5465 9.48156 9.70878 9.27292 9.70878H5.93461V1.54849ZM2.22539 2.29033V3.03218H2.96723V2.29033H2.22539ZM3.70908 2.29033V3.03218H4.45092V2.29033H3.70908ZM6.67646 2.29033V3.03218H7.4183V2.29033H6.67646ZM8.16015 2.29033V3.03218H8.90199V2.29033H8.16015ZM2.22539 8.22509V8.96694H2.96723V8.22509H2.22539ZM3.70908 8.22509V8.96694H4.45092V8.22509H3.70908ZM6.67646 8.22509V8.96694H7.4183V8.22509H6.67646ZM8.16015 8.22509V8.96694H8.90199V8.22509H8.16015Z" fill="#15151E"/>
</svg>
