<svg width="10" height="10" viewBox="0 0 10 10" fill="none" xmlns="http://www.w3.org/2000/svg">
<path d="M8.11947 0.337891C8.04358 0.337891 7.96768 0.346998 7.89179 0.362177L3.8086 1.23649C3.27126 1.35186 2.88571 1.83152 2.88571 2.37796V6.77384C2.65499 6.64026 2.39391 6.55526 2.10854 6.55526C1.25547 6.55526 0.554199 7.25653 0.554199 8.1096C0.554199 8.96267 1.25547 9.66394 2.10854 9.66394C2.96161 9.66394 3.66288 8.96267 3.66288 8.1096V3.7623L8.32591 2.76048V5.99667C8.09519 5.86309 7.83411 5.77809 7.54874 5.77809C6.69567 5.77809 5.9944 6.47936 5.9944 7.33243C5.9944 8.18549 6.69567 8.88677 7.54874 8.88677C8.4018 8.88677 9.10308 8.18549 9.10308 7.33243V1.34275C9.10308 1.03006 8.9695 0.735584 8.74182 0.550399C8.56878 0.413786 8.3502 0.337891 8.11947 0.337891ZM8.17715 1.12113C8.21055 1.1272 8.2318 1.13935 8.25305 1.15756C8.29251 1.18792 8.32591 1.23953 8.32591 1.34275V1.96509L3.66288 2.96691V2.37796C3.66288 2.19278 3.78735 2.03795 3.9695 1.99849L8.05572 1.12113C8.10429 1.11203 8.14376 1.11203 8.17715 1.12113ZM7.54874 6.55526C7.98286 6.55526 8.32591 6.89831 8.32591 7.33243C8.32591 7.76655 7.98286 8.1096 7.54874 8.1096C7.11461 8.1096 6.77157 7.76655 6.77157 7.33243C6.77157 6.89831 7.11461 6.55526 7.54874 6.55526ZM2.10854 7.33243C2.54266 7.33243 2.88571 7.67548 2.88571 8.1096C2.88571 8.54372 2.54266 8.88677 2.10854 8.88677C1.67442 8.88677 1.33137 8.54372 1.33137 8.1096C1.33137 7.67548 1.67442 7.33243 2.10854 7.33243Z" fill="#C4C4C4"/>
</svg>
